# xmcd CD database file
#
# Track frame offsets:
#	150
#	22444
#	45230
#	68113
#	91570
#	112879
#	137253
#	167485
#	187611
#	209272
#
# Disc length: 3122 seconds
#
# Revision: 0
# Processed by: cddbd v1.5PL3 Copyright (c) Steve Scherf et al.
# Submitted via: CDex 1.51
#
DISCID=700c300a
DTITLE=Various Artist - Smooth Jazz Affaire
DYEAR=2004
DGENRE=Jazz
TTITLE0=Theo Bishop - Tonight's The Night
TTITLE1=Andy Snitzer - Loving You
TTITLE2=Chieli Minucci - Cause We've Ended As Lovers
TTITLE3=Brian Bromberg - By The Fireplace
TTITLE4=Jeff Kashiwa - Because Of You
TTITLE5=Steve Oliver - Highway One
TTITLE6=Juan Calos Quintero - Anoche
TTITLE7=Jeff Kashiwa - A Quiet Goodbye
TTITLE8=Joe Sherbanee - San Luis
TTITLE9=Tony Guerrero - If I Could Have It All
EXTD=YEAR: 2004
EXTT0=
EXTT1=
EXTT2=
EXTT3=
EXTT4=
EXTT5=
EXTT6=
EXTT7=
EXTT8=
EXTT9=
PLAYORDER=
